<svg width="20" height="16" viewBox="0 0 20 16" fill="none" xmlns="http://www.w3.org/2000/svg">
<path d="M8.76131 0.21934C8.90171 0.359965 8.98061 0.550589 8.98061 0.74934C8.98061 0.948091 8.90171 1.13871 8.76131 1.27934L2.29131 7.74934L8.76131 14.2193C8.83501 14.288 8.89411 14.3708 8.93511 14.4628C8.97611 14.5548 8.99811 14.6541 8.99991 14.7548C9.00171 14.8555 8.98311 14.9555 8.94541 15.0489C8.90771 15.1423 8.85151 15.2272 8.78031 15.2984C8.70911 15.3696 8.62431 15.4257 8.53091 15.4635C8.43751 15.5012 8.33751 15.5197 8.23681 15.5179C8.13611 15.5162 8.03681 15.4941 7.94481 15.4531C7.85281 15.4121 7.77001 15.353 7.70131 15.2793L0.171312 7.74934L7.70131 0.21934C7.84191 0.0788896 8.03251 0 8.23131 0C8.43001 0 8.62071 0.0788896 8.76131 0.21934Z" fill="#F9F9F9"/>
<path d="M15.7613 0.21934C15.9017 0.359965 15.9806 0.550589 15.9806 0.74934C15.9806 0.948091 15.9017 1.13871 15.7613 1.27934L9.2913 7.74934L15.7613 14.2193C15.835 14.288 15.8941 14.3708 15.9351 14.4628C15.9761 14.5548 15.9981 14.6541 15.9999 14.7548C16.0017 14.8555 15.9831 14.9555 15.9454 15.0489C15.9077 15.1423 15.8516 15.2272 15.7803 15.2984C15.7091 15.3696 15.6243 15.4257 15.5309 15.4635C15.4375 15.5012 15.3375 15.5197 15.2368 15.5179C15.1361 15.5162 15.0368 15.4941 14.9448 15.4531C14.8528 15.4121 14.77 15.353 14.7013 15.2793L7.1713 7.74934L14.7013 0.21934C14.8419 0.0788896 15.0325 0 15.2313 0C15.43 0 15.6207 0.0788896 15.7613 0.21934Z" fill="#F9F9F9"/>
</svg>
