<svg width="20" height="16" viewBox="0 0 20 16" fill="none" xmlns="http://www.w3.org/2000/svg">
<path d="M11.2387 0.21934C11.0983 0.359965 11.0194 0.550589 11.0194 0.74934C11.0194 0.948091 11.0983 1.13871 11.2387 1.27934L17.7087 7.74934L11.2387 14.2193C11.165 14.288 11.1059 14.3708 11.0649 14.4628C11.0239 14.5548 11.0019 14.6541 11.0001 14.7548C10.9983 14.8555 11.0169 14.9555 11.0546 15.0489C11.0923 15.1423 11.1485 15.2272 11.2197 15.2984C11.2909 15.3696 11.3757 15.4257 11.4691 15.4635C11.5625 15.5012 11.6625 15.5197 11.7632 15.5179C11.8639 15.5162 11.9632 15.4941 12.0552 15.4531C12.1472 15.4121 12.23 15.353 12.2987 15.2793L19.8287 7.74934L12.2987 0.21934C12.1581 0.0788896 11.9675 0 11.7687 0C11.57 0 11.3793 0.0788896 11.2387 0.21934Z" fill="#F9F9F9"/>
<path d="M4.23871 0.21934C4.09826 0.359965 4.01937 0.550589 4.01937 0.74934C4.01937 0.948091 4.09826 1.13871 4.23871 1.27934L10.7087 7.74934L4.23871 14.2193C4.16502 14.288 4.10592 14.3708 4.06493 14.4628C4.02394 14.5548 4.00189 14.6541 4.00012 14.7548C3.99834 14.8555 4.01686 14.9555 4.05459 15.0489C4.09231 15.1423 4.14845 15.2272 4.21967 15.2984C4.29089 15.3696 4.37572 15.4257 4.46911 15.4635C4.5625 15.5012 4.66253 15.5197 4.76323 15.5179C4.86393 15.5162 4.96325 15.4941 5.05525 15.4531C5.14725 15.4121 5.23005 15.353 5.29871 15.2793L12.8287 7.74934L5.29871 0.21934C5.15808 0.0788896 4.96746 0 4.76871 0C4.56996 0 4.37933 0.0788896 4.23871 0.21934Z" fill="#F9F9F9"/>
</svg>
